# xmcd
#
# Track frame offsets: 
#        150
#        16441
#        28573
#        42565
#        57718
#        70419
#        83478
#        91584
#        104216
#        118138
#        133943
#        146479
#        159272
#        175215
#        190571
#        204011
#        219703
#        231794
#        243594
#        259534
#
# Disc length: 3633 seconds
#
# Revision: 2
# Processed by: cddbd v1.5.2PL0 Copyright (c) Steve Scherf et al.
# Submitted via: ExactAudioCopy v0.99pb5
#
DISCID=1b0e2f14
DTITLE=Lara, Agustín - Serie Platino, 20 Grandes Éxitos
DYEAR=1997
DGENRE=Latin
TTITLE0=Noche De Ronda
TTITLE1=Solamente Una Vez
TTITLE2=Amor De Mis Amores
TTITLE3=María Bonita
TTITLE4=Rival
TTITLE5=Farolito
TTITLE6=Palabras De Mujer
TTITLE7=Santa
TTITLE8=Piensa En Mí
TTITLE9=Cada Noche Un Amor
TTITLE10=Arráncame La Vida
TTITLE11=Veracruz
TTITLE12=Revancha
TTITLE13=Piénsalo Bien
TTITLE14=Rosa
TTITLE15=Escarcha
TTITLE16=Imposible
TTITLE17=Como Dos Puñales
TTITLE18=Tus Pupilas
TTITLE19=Aventurera
EXTD=
EXTT0=
EXTT1=
EXTT2=
EXTT3=
EXTT4=
EXTT5=
EXTT6=
EXTT7=
EXTT8=
EXTT9=
EXTT10=
EXTT11=
EXTT12=
EXTT13=
EXTT14=
EXTT15=
EXTT16=
EXTT17=
EXTT18=
EXTT19=
PLAYORDER=
